<?xml version="1.0" encoding="UTF-8"?>
<!DOCTYPE svg PUBLIC "-//W3C//DTD SVG 1.1//EN" "http://www.w3.org/Graphics/SVG/1.1/DTD/svg11.dtd">
<svg xmlns="http://www.w3.org/2000/svg" version="1.1" width="20px" height="20px" style="shape-rendering:geometricPrecision; text-rendering:geometricPrecision; image-rendering:optimizeQuality; fill-rule:evenodd; clip-rule:evenodd" xmlns:xlink="http://www.w3.org/1999/xlink">
<g><path style="opacity:0.645" fill="#fefffe" d="M 7.5,0.5 C 16.8763,2.21615 20.5429,7.88282 18.5,17.5C 12.5,17.5 6.5,17.5 0.5,17.5C 0.305389,13.0848 0.805389,8.75143 2,4.5C 4.46319,3.96782 6.29653,2.63449 7.5,0.5 Z M 3.5,6.5 C 4.73485,6.72142 5.73485,7.38809 6.5,8.5C 8.5,5.83333 10.5,5.83333 12.5,8.5C 13.1667,7.83333 13.8333,7.16667 14.5,6.5C 15.4891,9.43774 16.1558,12.4377 16.5,15.5C 11.8333,15.5 7.16667,15.5 2.5,15.5C 3.15872,12.5448 3.49205,9.54483 3.5,6.5 Z"/></g>
</svg>
